<svg xmlns="http://www.w3.org/2000/svg" viewBox="0 0 512 394" width="512" height="394">
	<style>
		tspan { white-space:pre }
		.shp0 { fill: #435b6c } 
		.shp1 { fill: #ffd15d } 
		.shp2 { fill: #ffffff } 
	</style>
	<path id="Layer" class="shp0" d="M0 393.8L0 0.2L512 0.2L512 393.8L0 393.8Z" />
	<g id="Layer">
		<path id="Layer" class="shp1" d="M0 358.53L0 332.93L512 332.93L512 358.53L0 358.53Z" />
		<path id="Layer" class="shp1" d="M0 64.13L0 38.53L512 38.53L512 64.13L0 64.13Z" />
	</g>
	<g id="Layer">
		<path id="Layer" class="shp2" d="M34.13 211.33L34.13 185.73L122.67 185.73L122.67 211.33L34.13 211.33Z" />
		<path id="Layer" class="shp2" d="M152.53 211.33L152.53 185.73L241.07 185.73L241.07 211.33L152.53 211.33Z" />
		<path id="Layer" class="shp2" d="M270.93 211.33L270.93 185.73L359.47 185.73L359.47 211.33L270.93 211.33Z" />
		<path id="Layer" class="shp2" d="M389.33 211.33L389.33 185.73L477.87 185.73L477.87 211.33L389.33 211.33Z" />
	</g>
	<g id="Layer">
	</g>
	<g id="Layer">
	</g>
	<g id="Layer">
	</g>
	<g id="Layer">
	</g>
	<g id="Layer">
	</g>
	<g id="Layer">
	</g>
	<g id="Layer">
	</g>
	<g id="Layer">
	</g>
	<g id="Layer">
	</g>
	<g id="Layer">
	</g>
	<g id="Layer">
	</g>
	<g id="Layer">
	</g>
	<g id="Layer">
	</g>
	<g id="Layer">
	</g>
	<g id="Layer">
	</g>
</svg>