<?xml version="1.0" encoding="iso-8859-1"?>
<!-- Generator: Adobe Illustrator 19.0.0, SVG Export Plug-In . SVG Version: 6.00 Build 0)  -->
<svg version="1.1" id="Capa_1" xmlns="http://www.w3.org/2000/svg" xmlns:xlink="http://www.w3.org/1999/xlink" x="0px" y="0px"
	 viewBox="0 0 512.093 512.093" style="enable-background:new 0 0 512.093 512.093;" xml:space="preserve">
<g transform="translate(0 -1)">
	<path style="fill:#668892;" d="M499.03,382.75c0,42.782-38.443,80.792-97.801,104.569c-7.984,3.21-16.315,6.161-25.079,8.765
		h-0.087c-20.756,6.271-42.006,10.77-63.523,13.451h-0.087c-7.723,1.041-15.534,1.823-23.517,2.343
		c-10.761,0.781-21.695,1.215-32.889,1.215s-22.129-0.434-32.889-1.215c-7.984-0.52-15.794-1.302-23.517-2.343h-0.087
		c-21.516-2.68-42.767-7.18-63.523-13.451c-8.765-2.603-17.182-5.555-25.166-8.765c-59.357-23.778-97.801-61.788-97.801-104.569
		H499.03z"/>
	<path style="fill:#919D9E;" d="M314.189,356.516h157.339c14.01-0.293,25.92,10.171,27.433,24.102
		c0.515,7.21-1.989,14.31-6.913,19.602c-4.924,5.292-11.824,8.301-19.053,8.308l-9.341,0.746
		c-138.185,11.043-277.031,11.043-415.216,0l-9.341-0.746c-14.363,0-26.006-11.643-26.006-26.006s11.643-26.006,26.006-26.006
		H314.189L314.189,356.516z"/>
	<path style="fill:#A5B4B4;" d="M377.799,356.516l105.264-41.869c9.239-3.153,16.819-9.893,21.031-18.7
		c4.212-8.807,4.702-18.938,1.358-28.11c-4.282-11.136-13.638-19.548-25.166-22.625c12.247-20.194,13.391-45.229,3.038-66.456
		s-30.785-35.739-54.238-38.521c0.349-3.021,0.523-6.061,0.521-9.102c-0.027-43.11-34.992-78.037-78.102-78.018
		c-6.408-0.018-12.793,0.769-19.005,2.341c-15.137-28.136-44.504-45.684-76.453-45.684s-61.316,17.548-76.453,45.684
		c-6.212-1.572-12.597-2.358-19.005-2.341c-43.11-0.02-78.075,34.908-78.102,78.018c-0.002,3.042,0.172,6.081,0.521,9.102
		c-23.453,2.782-43.885,17.294-54.238,38.521s-9.209,46.262,3.038,66.456C20.28,248.288,10.924,256.7,6.642,267.837
		c-3.344,9.172-2.855,19.303,1.358,28.11s11.793,15.547,21.032,18.7l105.264,41.869"/>
	<g>
		<path style="fill:#508892;" d="M342.826,105.136c-2.302,0.001-4.509-0.913-6.137-2.541c-1.628-1.628-2.542-3.835-2.541-6.137
			c0-43.134-34.967-78.102-78.102-78.102s-78.102,34.967-78.102,78.102c0,4.793-3.885,8.678-8.678,8.678
			c-4.793,0-8.678-3.885-8.678-8.678C160.589,43.738,203.327,1,256.047,1s95.458,42.738,95.458,95.458
			c0.001,2.302-0.914,4.509-2.541,6.137C347.336,104.222,345.128,105.136,342.826,105.136z"/>
		<path style="fill:#508892;" d="M93.64,174.441c-2.995,0.002-5.779-1.538-7.369-4.076c-15.832-25.407-16.633-57.404-2.092-83.572
			s42.135-42.386,72.071-42.36c4.793,0,8.678,3.885,8.678,8.678s-3.885,8.678-8.678,8.678
			c-23.627-0.028-45.409,12.765-56.892,33.414s-10.857,45.903,1.633,65.958c2.539,4.065,1.302,9.418-2.763,11.958
			C96.855,173.984,95.264,174.443,93.64,174.441L93.64,174.441z"/>
		<path style="fill:#508892;" d="M418.453,174.441c-1.624,0.002-3.215-0.456-4.589-1.322c-4.065-2.539-5.302-7.893-2.763-11.958
			c12.49-20.056,13.116-45.309,1.633-65.958S379.47,61.76,355.843,61.788c-4.793,0-8.678-3.885-8.678-8.678s3.885-8.678,8.678-8.678
			c29.936-0.026,57.53,16.192,72.071,42.36s13.74,58.165-2.092,83.572C424.233,172.902,421.448,174.443,418.453,174.441
			L418.453,174.441z"/>
	</g>
	<g>
		<path style="fill:#445C71;" d="M223.157,511.878c-7.984-0.52-15.794-1.302-23.517-2.343h-0.087
			c-2.767-6.84-4.21-14.143-4.252-21.521c0-4.793,3.885-8.678,8.678-8.678c4.793,0,8.678,3.885,8.678,8.678
			C212.657,488.274,212.917,506.324,223.157,511.878z"/>
		<path style="fill:#445C71;" d="M316.792,488.014c-0.043,7.378-1.486,14.681-4.252,21.521h-0.087
			c-7.723,1.041-15.534,1.823-23.517,2.343c10.24-5.554,10.5-23.604,10.5-23.864c0-4.793,3.885-8.678,8.678-8.678
			S316.792,483.221,316.792,488.014z"/>
		<path style="fill:#445C71;" d="M403.572,471.699c-0.075,5.288-0.863,10.543-2.343,15.62c-7.984,3.21-16.315,6.161-25.079,8.765
			c0.37-0.722,0.905-1.347,1.562-1.823c5.584-6.21,8.621-14.298,8.504-22.649c0.024-4.793,3.929-8.659,8.721-8.635
			C399.73,463.002,403.596,466.907,403.572,471.699z"/>
		<path style="fill:#445C71;" d="M134.382,494.262c-3.384-3.148-5.768-7.222-6.856-11.715c-1.009-3.531-1.563-7.176-1.649-10.847
			v-0.087c-0.024-4.793-3.929-8.659-8.721-8.635c-4.793,0.024-8.659,3.929-8.635,8.721c0.075,5.288,0.863,10.543,2.343,15.62
			c7.984,3.21,16.401,6.161,25.166,8.765C135.601,495.378,135.041,494.76,134.382,494.262z"/>
	</g>
	<ellipse style="fill:#BDDCF3;" cx="256.047" cy="304.501" rx="78.102" ry="78.015"/>
	<path style="fill:#FFFFFF;" d="M212.657,313.186c-2.302,0.001-4.509-0.914-6.137-2.541c-1.628-1.628-2.542-3.835-2.541-6.137
		c0.044-28.731,23.337-52.005,52.068-52.025c4.793,0,8.678,3.885,8.678,8.678c0,4.793-3.885,8.678-8.678,8.678
		c-19.15,0.01-34.679,15.519-34.712,34.67c0.001,2.302-0.913,4.509-2.541,6.137C217.166,312.273,214.959,313.187,212.657,313.186
		L212.657,313.186z"/>
</g>
<g>
</g>
<g>
</g>
<g>
</g>
<g>
</g>
<g>
</g>
<g>
</g>
<g>
</g>
<g>
</g>
<g>
</g>
<g>
</g>
<g>
</g>
<g>
</g>
<g>
</g>
<g>
</g>
<g>
</g>
</svg>
