<svg height="512pt" viewBox="0 -36 512.00001 512" width="512pt" xmlns="http://www.w3.org/2000/svg"><path d="m311.101562 440.058594h-110.203124c-22.472657 0-41.445313-17.546875-43.195313-39.953125l-3.121094-39.914063c-.324219-4.167968 1.105469-8.285156 3.945313-11.355468 2.839844-3.070313 6.832031-4.8125 11.011718-4.8125h172.921876c4.179687 0 8.175781 1.742187 11.011718 4.8125 2.839844 3.070312 4.269532 7.1875 3.945313 11.355468l-3.117188 39.914063c-1.75 22.40625-20.726562 39.953125-43.199219 39.953125zm0 0" fill="#f3c992"/><path d="m353.472656 348.835938c-2.835937-3.070313-6.832031-4.8125-11.011718-4.8125h-86.460938v96.035156h55.101562c22.472657 0 41.449219-17.546875 43.199219-39.953125l3.117188-39.914063c.324219-4.167968-1.105469-8.285156-3.945313-11.355468zm0 0" fill="#eebb75"/><path d="m342.460938 374.027344h-172.921876c-2.476562 0-4.914062-.613282-7.09375-1.785156-1.441406-.773438-35.679687-19.191407-72.121093-42.1875-69.097657-43.601563-82.71875-63.59375-86.957031-74.84375-10.144532-26.921876 4.929687-68.71875 14.820312-91.238282 15.390625-35.042968 37.714844-68.929687 59.714844-90.636718 47.710937-47.042969 110.9375-73.085938 178.042968-73.335938h.109376c67.101562.25 130.332031 26.292969 178.039062 73.332031.003906.003907.003906.003907.003906.003907 22 21.707031 44.324219 55.59375 59.714844 90.640624 9.890625 22.515626 24.964844 64.316407 14.820312 91.238282-4.234374 11.246094-17.859374 31.242187-86.957031 74.839844-36.441406 22.996093-70.679687 41.414062-72.117187 42.1875-2.183594 1.171874-4.621094 1.785156-7.097656 1.785156zm0 0" fill="#f4d7af"/><path d="m493.8125 163.976562c-15.390625-35.046874-37.714844-68.933593-59.714844-90.640624 0 0-.003906 0-.003906-.003907-47.707031-47.039062-110.9375-73.082031-178.039062-73.332031-.019532 0-.039063 0-.054688 0v374.027344h86.460938c2.476562 0 4.914062-.613282 7.09375-1.785156 1.441406-.773438 35.679687-19.191407 72.121093-42.1875 69.097657-43.601563 82.71875-63.59375 86.953125-74.839844 10.148438-26.925782-4.925781-68.722656-14.816406-91.238282zm0 0" fill="#f3c992"/><path d="m473.847656 125.441406-171.730468 209.992188 98.835937-289.710938c-8.4375-5.902344-17.191406-11.261718-26.21875-16.066406l-103.734375 304.054688v-333.207032c-4.957031-.304687-9.9375-.4843748-14.945312-.503906-.035157 0-.074219 0-.109376 0-5.007812.0195312-9.988281.199219-14.945312.503906v333.207032l-103.730469-304.054688c-9.03125 4.804688-17.785156 10.164062-26.222656 16.066406l98.84375 289.722656-171.738281-210.003906c-5.519532 9.1875-10.703125 18.792969-15.390625 28.578125l179.917969 220.007813h106.632812l179.925781-220.007813c-4.6875-9.785156-9.871093-19.390625-15.390625-28.578125zm0 0" fill="#f5a96c"/><path d="m489.238281 154.019531c-4.6875-9.785156-9.871093-19.390625-15.390625-28.578125l-171.730468 209.992188 98.835937-289.710938c-8.4375-5.902344-17.191406-11.261718-26.21875-16.066406l-103.734375 304.054688v-333.207032c-4.957031-.304687-9.9375-.4843748-14.945312-.503906-.015626 0-.035157 0-.054688 0v374.027344h53.3125zm0 0" fill="#d98955"/></svg>