<?xml version="1.0" encoding="iso-8859-1"?>
<!-- Generator: Adobe Illustrator 19.0.0, SVG Export Plug-In . SVG Version: 6.00 Build 0)  -->
<svg version="1.1" id="Layer_1" xmlns="http://www.w3.org/2000/svg" xmlns:xlink="http://www.w3.org/1999/xlink" x="0px" y="0px"
	 viewBox="0 0 512.001 512.001" style="enable-background:new 0 0 512.001 512.001;" xml:space="preserve">
<path style="fill:#FFB655;" d="M219.988,277.706c0,0-57.64,199.648,6.301,212.8c58.243,11.98,162.361,19.247,270.384-26.218
	c4.727-1.893,8.904-5.275,11.757-9.957c6.996-11.477,3.396-26.442-8.028-33.492c-0.001-0.001-0.003-0.002-0.004-0.003
	c-0.005-0.003-0.013-0.008-0.018-0.011c-0.005-0.003-0.012-0.007-0.018-0.01c-0.005-0.003-0.012-0.007-0.018-0.01
	c-0.007-0.004-0.014-0.008-0.021-0.013c-0.003-0.002-0.006-0.004-0.009-0.005c-0.01-0.006-0.02-0.011-0.029-0.018L253.177,270.156
	C241.893,263.279,227.186,266.625,219.988,277.706z"/>
<path style="fill:#FFA733;" d="M253.177,270.156c-11.284-6.878-25.991-3.532-33.189,7.55c0,0-57.64,199.648,6.301,212.8
	c37.512,7.716,94.067,13.452,158.426,4.428c18.635-12.196,36.644-26.91,53.76-44.026c14.335-14.335,26.978-29.298,37.878-44.728
	L253.177,270.156z"/>
<circle style="fill:#FF9811;" cx="38.682" cy="51.128" r="38.682"/>
<path style="fill:#EE8700;" d="M38.687,51.128c-10.124-10.124-13.453-24.46-10.009-37.365c-6.354,1.696-12.362,5.025-17.346,10.009
	c-15.108,15.108-15.108,39.603,0,54.711s39.603,15.108,54.711,0c4.984-4.984,8.313-10.992,10.009-17.346
	C63.146,64.58,48.811,61.251,38.687,51.128z"/>
<path style="fill:#FFA733;" d="M122.198,26.926c29.744,29.744,21.445,69.67-8.3,99.414s-69.67,38.044-99.414,8.3
	s-7.544-55.768,22.2-85.512S92.454-2.818,122.198,26.926z"/>
<path style="fill:#FF9811;" d="M57.271,91.852c-22.14-22.14-15.492-42.22,1.619-63.307c-7.241,5.875-14.601,12.978-22.205,20.581
	c-29.744,29.744-51.944,55.768-22.2,85.512s69.67,21.445,99.414-8.3c7.604-7.604,13.795-15.874,18.318-24.468
	C107.191,115.044,79.411,113.993,57.271,91.852z"/>
<path style="fill:#FFB655;" d="M218.254,50.618c49.727,49.727,35.853,116.476-13.875,166.203S87.903,280.423,38.177,230.696
	S25.565,137.461,75.291,87.733S168.527,0.891,218.254,50.618z"/>
<path style="fill:#FFA733;" d="M104.811,164.061c-37.957-37.957-25.314-72.29,4.911-108.531
	c-11.239,9.373-22.66,20.434-34.43,32.204c-49.727,49.727-86.843,93.235-37.115,142.963
	c49.727,49.727,116.476,35.853,166.203-13.874c11.774-11.774,21.508-24.509,28.895-37.741
	C190.625,202.887,142.764,202.014,104.811,164.061z"/>
<path style="fill:#FFC477;" d="M323.85,93.354c67.083,67.083,48.366,157.13-18.717,224.213s-157.13,85.801-224.213,18.717
	s-17.014-125.778,50.069-192.861S256.766,26.27,323.85,93.354z"/>
<path style="fill:#FFB655;" d="M161.012,256.191c-53.051-53.051-32.829-100.856,11.127-151.711
	c-13.452,11.628-27.117,24.909-41.151,38.942C63.905,210.506,13.836,269.201,80.919,336.285s157.13,48.366,224.213-18.717
	c14.033-14.033,25.94-29.073,35.397-44.695C281.471,308.623,214.062,309.242,161.012,256.191z"/>
<path style="fill:#FFDAAA;" d="M429.527,148.419c81.06,81.06,58.443,189.866-22.617,270.926s-189.866,103.677-270.926,22.617
	s-20.558-151.982,60.501-233.043S348.467,67.359,429.527,148.419z"/>
<g>
	<path style="fill:#FFC477;" d="M207.501,353.556c-46.273-46.273-46.402-89.243-22.924-132.68
		c-74.823,76.134-125.659,144.02-48.617,221.063c81.06,81.06,189.866,58.443,270.926-22.617
		c21.771-21.771,39.318-45.545,51.782-70.244C380.302,414.928,282.139,428.194,207.501,353.556z"/>
	<path style="fill:#FFC477;" d="M418.963,196.337c-4.881-6.917-10.649-13.716-17.143-20.211c-3.06-3.061-3.06-8.023,0-11.082
		c3.06-3.061,8.023-3.061,11.082,0c7.124,7.124,13.472,14.612,18.867,22.257c2.495,3.536,1.788,8.631-1.885,10.921
		C424.926,201.316,420.489,198.501,418.963,196.337z"/>
	<path style="fill:#FFC477;" d="M428.109,340.188c-4.016-1.615-5.483-6.608-3.571-10.492c8.368-17.003,13.606-33.977,15.568-50.45
		c2.369-19.882,0.064-38.923-6.851-56.596c-1.577-4.03,0.412-8.577,4.442-10.153c4.032-1.576,8.577,0.413,10.153,4.442
		c7.865,20.102,10.495,41.688,7.818,64.161c-2.172,18.239-7.915,36.917-17.068,55.515
		C437.237,339.387,433.981,342.55,428.109,340.188z"/>
</g>
<g>
</g>
<g>
</g>
<g>
</g>
<g>
</g>
<g>
</g>
<g>
</g>
<g>
</g>
<g>
</g>
<g>
</g>
<g>
</g>
<g>
</g>
<g>
</g>
<g>
</g>
<g>
</g>
<g>
</g>
</svg>
