<?xml version="1.0" encoding="iso-8859-1"?>
<!-- Generator: Adobe Illustrator 19.0.0, SVG Export Plug-In . SVG Version: 6.00 Build 0)  -->
<svg version="1.1" id="Capa_1" xmlns="http://www.w3.org/2000/svg" xmlns:xlink="http://www.w3.org/1999/xlink" x="0px" y="0px"
	 viewBox="0 0 512.001 512.001" style="enable-background:new 0 0 512.001 512.001;" xml:space="preserve">
<g>
	<circle style="fill:#73E6E1;" cx="304.45" cy="92.81" r="27.433"/>
	<circle style="fill:#73E6E1;" cx="207.55" cy="92.81" r="27.433"/>
</g>
<g>
	<path style="fill:#F15D5C;" d="M435.321,177.097h12.425c29.964,0,54.255-24.291,54.255-54.255v-6.822
		c0-29.964-24.291-54.255-54.255-54.255h-12.425V177.097z"/>
	<path style="fill:#F15D5C;" d="M435.321,177.097v-41.158l-28.61-44.173l-10.429,6.754c-20.514,13.286-26.373,40.687-13.086,61.2
		l0,0c11.522,17.79,33.659,24.558,52.714,17.377L435.321,177.097L435.321,177.097z"/>
	<path style="fill:#F15D5C;" d="M76.679,177.097H64.255C34.291,177.097,10,152.806,10,122.842v-6.822
		c0-29.964,24.291-54.255,54.255-54.255H76.68v115.332H76.679z"/>
	<path style="fill:#F15D5C;" d="M115.718,98.52l-10.429-6.754l-28.61,44.173v41.158H76.09c19.055,7.182,41.192,0.413,52.714-17.377
		l0,0C142.091,139.206,136.232,111.806,115.718,98.52z"/>
	<path style="fill:#F15D5C;" d="M108.919,337.104c-7.406,3.021-14.346,7.536-20.356,13.547c-24.166,24.166-24.166,63.346,0,87.511
		c5.101,5.101,10.871,9.125,17.028,12.073c-11.016-23.01-6.991-51.418,12.073-70.483c3.043-3.043,6.324-5.702,9.783-7.978"/>
	<path style="fill:#F15D5C;" d="M104.155,268.318c-6.895-1.502-14.166-1.841-21.564-0.828
		c-33.859,4.636-57.549,35.843-52.913,69.702c0.979,7.147,3.141,13.842,6.263,19.912c5.139-24.988,25.521-45.182,52.233-48.84
		c4.766-0.652,9.478-0.743,14.072-0.324"/>
	<path style="fill:#F15D5C;" d="M384.553,371.773c3.459,2.276,6.74,4.936,9.783,7.978c19.064,19.065,23.089,47.474,12.073,70.483
		c6.157-2.948,11.927-6.972,17.028-12.073c24.166-24.166,24.166-63.346,0-87.511c-6.011-6.01-12.95-10.526-20.356-13.547"/>
	<path style="fill:#F15D5C;" d="M409.754,307.939c4.594-0.419,9.307-0.328,14.072,0.324c26.712,3.658,47.095,23.852,52.233,48.84
		c3.122-6.07,5.284-12.765,6.263-19.912c4.636-33.859-19.054-65.066-52.913-69.702c-7.398-1.013-14.669-0.674-21.564,0.828"/>
</g>
<path style="fill:#F9993A;" d="M318.97,421.917c-19.23,7.78-40.54,12.11-62.97,12.11s-43.74-4.33-62.97-12.11L256,291.197
	L318.97,421.917z"/>
<path style="fill:#F74B4B;" d="M256,154.397c-85.32,0-154.49,62.6-154.49,139.81c0,56.92,37.59,105.9,91.52,127.71L256,291.197
	l62.97,130.72c53.93-21.81,91.52-70.79,91.52-127.71C410.49,216.997,341.32,154.397,256,154.397z"/>
<path d="M447.746,51.766h-12.425c-5.523,0-10,4.478-10,10v40.338l-10.217-15.775c-3.002-4.636-9.195-5.96-13.829-2.957
	l-10.429,6.754c-12.164,7.878-20.531,20.021-23.561,34.192c-3.03,14.171-0.36,28.674,7.518,40.838
	c10.191,15.734,27.723,24.73,45.746,24.73c1.183,0,2.369-0.039,3.554-0.117c-2.65,14.802-9.549,28.439-19.952,39.369
	c-18.22-34.272-50.364-61.307-89.696-74.971v-25.285c15.801-4.385,27.433-18.897,27.433-36.076
	c0-20.641-16.792-37.433-37.433-37.433s-37.433,16.792-37.433,37.433c0,17.179,11.632,31.691,27.433,36.076v19.647
	c-12.34-2.702-25.217-4.134-38.454-4.134s-26.114,1.432-38.454,4.134v-19.647c15.801-4.385,27.433-18.897,27.433-36.076
	c0-20.641-16.792-37.433-37.433-37.433s-37.433,16.792-37.433,37.433c0,17.179,11.632,31.691,27.433,36.076v25.285
	c-39.333,13.664-71.476,40.699-89.697,74.971c-10.403-10.931-17.301-24.568-19.952-39.37c1.185,0.078,2.371,0.117,3.554,0.117
	c18.021,0,35.556-8.997,45.746-24.73c7.877-12.164,10.547-26.667,7.517-40.838s-11.397-26.314-23.561-34.192l-10.429-6.754
	c-4.636-3.001-10.827-1.678-13.829,2.957l-10.217,15.775V61.766c0-5.522-4.477-10-10-10H64.254C28.824,51.766,0,80.59,0,116.02
	v6.822c0,35.431,28.824,64.255,64.254,64.255h3.049c2.688,23.769,13.966,45.565,31.982,61.552c-0.98,2.79-1.873,5.616-2.675,8.474
	c-5.099-0.396-10.242-0.244-15.376,0.458c-19.022,2.604-35.892,12.46-47.501,27.753s-16.568,34.19-13.963,53.213
	c1.111,8.117,3.56,15.899,7.278,23.129c1.729,3.363,5.183,5.428,8.89,5.427c0.45,0,0.905-0.03,1.36-0.093
	c4.202-0.575,7.584-3.738,8.438-7.893c4.423-21.51,22.023-37.965,43.794-40.947c1.339-0.183,2.682-0.314,4.027-0.394
	c0.835,4.77,1.919,9.48,3.244,14.116c-5.576,3.168-10.702,7.079-15.31,11.687c-28.026,28.026-28.026,73.628,0,101.654
	c5.794,5.794,12.45,10.511,19.781,14.021c1.378,0.66,2.853,0.98,4.315,0.98c2.596,0,5.156-1.011,7.074-2.929
	c2.999-2.999,3.78-7.563,1.948-11.39c-9.482-19.807-5.414-43.555,10.125-59.094c0.355-0.355,0.716-0.705,1.082-1.05
	c16.373,19.333,37.985,35.112,63.464,45.415c0.013,0.005,0.025,0.01,0.038,0.015c21.047,8.51,43.481,12.825,66.681,12.825
	c23.214,0,45.662-4.32,66.721-12.84c0.016-0.006,0.031-0.013,0.047-0.02c25.458-10.304,47.052-26.075,63.415-45.396
	c0.366,0.345,0.727,0.695,1.083,1.051c15.539,15.538,19.607,39.286,10.125,59.093c-1.832,3.826-1.051,8.391,1.948,11.39
	c1.918,1.918,4.478,2.929,7.074,2.929c1.462,0,2.937-0.32,4.315-0.98c7.332-3.51,13.987-8.227,19.782-14.021
	c28.025-28.026,28.025-73.628,0-101.653c-4.608-4.608-9.734-8.519-15.31-11.688c1.324-4.635,2.409-9.345,3.244-14.115
	c1.345,0.08,2.688,0.211,4.027,0.394c21.772,2.982,39.372,19.438,43.795,40.947c0.854,4.154,4.236,7.317,8.438,7.893
	c0.455,0.063,0.909,0.093,1.36,0.093c3.707,0,7.16-2.063,8.89-5.427c3.718-7.229,6.167-15.012,7.278-23.129
	c2.604-19.022-2.354-37.92-13.963-53.213c-11.609-15.293-28.479-25.148-47.501-27.753c-5.134-0.703-10.277-0.855-15.376-0.459
	c-0.802-2.858-1.695-5.684-2.675-8.474c18.016-15.987,29.294-37.783,31.982-61.552h3.049c35.43,0,64.254-28.824,64.254-64.255
	v-6.822C512,80.59,483.176,51.766,447.746,51.766z M287.021,92.808c0-9.612,7.82-17.433,17.433-17.433
	c9.612,0,17.433,7.82,17.433,17.433c0,9.613-7.82,17.433-17.433,17.433C294.841,110.24,287.021,102.42,287.021,92.808z
	 M190.113,92.808c0-9.612,7.82-17.433,17.433-17.433c9.613,0,17.433,7.82,17.433,17.433c0,9.613-7.82,17.433-17.433,17.433
	C197.934,110.24,190.113,102.42,190.113,92.808z M108.247,105.595l2.036,1.318c15.853,10.268,20.396,31.518,10.129,47.37
	c-7.351,11.35-20.741,17.145-33.732,15.273v-30.663L108.247,105.595z M20,122.842v-6.822c0-24.401,19.853-44.254,44.254-44.254
	h2.425v95.331h-2.425C39.853,167.097,20,147.244,20,122.842z M86.817,298.356c-19.377,2.653-36.369,13.013-47.667,27.984
	c0.472-10.414,4.076-20.432,10.514-28.913c8.379-11.037,20.554-18.151,34.284-20.031c2.887-0.395,5.776-0.549,8.65-0.464
	c-0.718,5.669-1.087,11.433-1.087,17.275c0,1.222,0.017,2.441,0.049,3.658C89.975,297.977,88.393,298.141,86.817,298.356z
	 M110.592,372.681c-13.825,13.825-21.095,32.346-21.046,51.097c-13.882-20.197-11.853-48.115,6.088-66.057
	c2.522-2.522,5.257-4.753,8.182-6.681c2.884,6.4,6.246,12.601,10.056,18.559C112.747,370.592,111.653,371.62,110.592,372.681z
	 M206.829,416.313L256,314.24l49.171,102.074c-15.707,5.123-32.2,7.714-49.171,7.714S222.536,421.438,206.829,416.313z
	 M323.786,408.872l-58.777-122.015c-1.667-3.46-5.168-5.66-9.009-5.66s-7.342,2.2-9.009,5.66l-58.776,122.015
	c-46.893-22.419-76.705-66.534-76.705-114.665c0-71.578,64.818-129.811,144.49-129.811s144.49,58.232,144.49,129.811
	C400.49,342.339,370.678,386.453,323.786,408.872z M416.366,357.722c17.94,17.94,19.97,45.858,6.088,66.056
	c0.049-18.751-7.221-37.271-21.046-51.096c-1.061-1.061-2.156-2.09-3.28-3.083c3.809-5.958,7.172-12.159,10.056-18.559
	C411.109,352.968,413.844,355.199,416.366,357.722z M428.053,277.396c13.729,1.88,25.905,8.994,34.284,20.031
	c6.438,8.481,10.042,18.499,10.514,28.913c-11.299-14.972-28.291-25.331-47.668-27.984c-1.576-0.216-3.158-0.379-4.742-0.491
	c0.033-1.217,0.049-2.437,0.049-3.658c0-5.842-0.369-11.606-1.087-17.275C422.276,276.847,425.165,277.001,428.053,277.396z
	 M391.589,154.283c-10.268-15.853-5.724-37.103,10.129-47.37l2.036-1.318l21.567,33.299v30.663
	C412.331,171.426,398.938,165.631,391.589,154.283z M492,122.842c0,24.402-19.853,44.255-44.254,44.255h-2.425V71.766h2.425
	c24.402,0,44.254,19.853,44.254,44.254V122.842z"/>
<path d="M370.49,304.21c-0.65,0-1.31-0.07-1.95-0.2s-1.27-0.32-1.87-0.57c-0.61-0.25-1.19-0.56-1.73-0.92
	c-0.55-0.359-1.06-0.779-1.52-1.239c-1.86-1.86-2.93-4.44-2.93-7.07c0-0.65,0.07-1.311,0.2-1.96c0.12-0.641,0.32-1.26,0.57-1.87
	c0.25-0.6,0.55-1.18,0.91-1.72c0.37-0.551,0.79-1.061,1.25-1.521s0.97-0.88,1.52-1.25c0.54-0.359,1.12-0.67,1.73-0.92
	c0.6-0.25,1.23-0.439,1.87-0.57c3.24-0.649,6.7,0.41,9.02,2.74c0.46,0.46,0.88,0.97,1.24,1.521c0.36,0.54,0.67,1.12,0.92,1.72
	c0.25,0.61,0.45,1.229,0.57,1.87c0.14,0.649,0.2,1.31,0.2,1.96c0,2.63-1.07,5.21-2.93,7.07
	C375.7,303.141,373.12,304.21,370.49,304.21z"/>
<path d="M141.51,304.207c-5.523,0-10-4.478-10-10c0-60.549,55.846-109.81,124.49-109.81c50.526,0,95.687,26.628,115.052,67.837
	c2.349,4.998,0.201,10.954-4.797,13.304c-4.998,2.347-10.956,0.2-13.303-4.798c-16.084-34.227-54.14-56.343-96.952-56.343
	c-57.616,0-104.49,40.288-104.49,89.81C151.51,299.729,147.033,304.207,141.51,304.207z"/>
<g>
</g>
<g>
</g>
<g>
</g>
<g>
</g>
<g>
</g>
<g>
</g>
<g>
</g>
<g>
</g>
<g>
</g>
<g>
</g>
<g>
</g>
<g>
</g>
<g>
</g>
<g>
</g>
<g>
</g>
</svg>
